<svg id="css" xmlns="http://www.w3.org/2000/svg" width="132.094" height="147.659" viewBox="0 0 132.094 147.659">
  <path id="Path_21" data-name="Path 21" d="M109.092,44.089h65.254c.751,0,.776,0,.7.726-.325,3.83-.676,7.659-1.026,11.489-.3,3.279-.576,6.583-.851,9.862-.3,3.3-.6,6.608-.876,9.912-.25,2.853-.5,5.682-.751,8.535-.3,3.329-.6,6.658-.876,9.987l-.751,8.41c-.3,3.379-.6,6.758-.9,10.162-.25,2.853-.5,5.682-.751,8.535-.3,3.3-.6,6.608-.876,9.912-.25,2.828-.5,5.657-.751,8.46-.3,3.354-.6,6.683-.9,10.037-.25,2.778-.476,5.582-.726,8.36l-.9,10.212c-.2,2.328-.426,4.631-.6,6.958a.69.69,0,0,1-.6.751q-26.733,7.622-53.44,15.269a1.389,1.389,0,0,1-.9,0q-26.7-7.659-53.44-15.269c-.451-.125-.551-.3-.6-.751-.325-3.755-.676-7.509-1-11.264-.3-3.3-.576-6.608-.851-9.912-.325-3.755-.676-7.509-1-11.264-.3-3.279-.576-6.583-.851-9.862-.325-3.755-.676-7.509-1-11.264-.3-3.279-.576-6.583-.851-9.862-.3-3.3-.6-6.608-.876-9.912-.25-2.828-.5-5.657-.751-8.46-.3-3.354-.6-6.683-.9-10.037-.25-2.8-.5-5.607-.726-8.41-.3-3.354-.6-6.733-.9-10.087-.25-2.778-.476-5.582-.726-8.36-.3-3.379-.6-6.758-.9-10.162-.075-.776-.1-1.552-.2-2.328-.025-.3.05-.4.325-.375a3.012,3.012,0,0,0,.476,0Z" transform="translate(-42.982 -44.085)" fill="#f6bd5a"/>
  <path id="Path_22" data-name="Path 22" d="M306.65,110.073V91.526c0-.826,0-.826.8-.826h51.763c.451,0,.7-.025.626.626-.25,2.153-.4,4.305-.6,6.458-.125,1.552-.225,3.129-.375,4.681-.125,1.527-.3,3.079-.451,4.606-.1,1.076-.15,2.153-.25,3.229-.15,1.6-.3,3.179-.451,4.781-.1,1.026-.175,2.053-.25,3.054-.15,1.7-.3,3.429-.451,5.131-.1,1.051-.15,2.078-.25,3.129-.15,1.6-.3,3.179-.451,4.781-.1,1.026-.175,2.053-.25,3.054-.15,1.677-.3,3.354-.451,5.006-.1,1.051-.15,2.078-.25,3.129-.15,1.627-.3,3.279-.451,4.906-.1,1.051-.15,2.128-.25,3.179-.15,1.627-.3,3.229-.451,4.856-.1,1.051-.175,2.078-.25,3.129l-.451,4.956c-.1,1-.175,2-.25,3-.15,1.7-.3,3.379-.451,5.081-.125,1.552-.225,3.129-.375,4.681-.125,1.527-.3,3.079-.451,4.606-.1,1.051-.175,2.128-.25,3.179-.15,1.627-.3,3.229-.451,4.856-.1,1.051-.175,2.078-.25,3.129l-.451,4.956c-.1,1.051-.175,2.078-.25,3.129a15.345,15.345,0,0,0-.125,1.852c.025.275-.15.426-.451.5-4.33,1.227-8.661,2.478-13.016,3.7-3.654,1.051-7.334,2.1-10.988,3.154q-7.171,2.065-14.342,4.08c-1.4.4-2.828.776-4.23,1.227-.576.175-.576-.025-.576-.476V196.028a.384.384,0,0,1,.175-.25c2.278-.826,4.606-1.527,6.908-2.278,7.584-2.528,15.219-5.006,22.8-7.509a.833.833,0,0,0,.676-.876c.05-1.477.15-2.954.25-4.405.1-1.677.2-3.379.3-5.056.1-1.477.175-2.954.275-4.405.1-1.727.2-3.454.325-5.181.1-1.5.175-3.029.275-4.531l.3-5.106c.1-1.477.175-2.954.275-4.405.1-1.727.2-3.454.325-5.181.1-1.5.175-2.979.275-4.48.1-1.652.2-3.3.3-4.931.1-1.452.175-2.9.275-4.355.1-1.677.2-3.329.325-5.006.1-1.477.175-2.954.275-4.405l.3-4.881c.1-1.427.175-2.879.275-4.305.075-1.076.1-2.128.2-3.2a1.145,1.145,0,0,0-.125-.9c-.25-.2-.576-.125-.851-.125H307.576A1.176,1.176,0,0,1,306.65,110.073Z" transform="translate(-240.615 -79.032)" fill="#f5c97c"/>
  <path id="Path_23" data-name="Path 23" d="M211.616,417.013c-.05.025-.1.075-.15.1-3.855-1.277-7.734-2.553-11.589-3.83-6.158-2.027-12.29-4.055-18.472-6.057a.821.821,0,0,1-.7-.876c-.1-2.378-.25-4.731-.375-7.109-.225-4.18-.451-8.335-.676-12.515-.05-1.126-.05-1.126,1.076-1.126h13.817c.476,0,.6.125.626.6.1,2.9.225,5.832.325,8.736a.443.443,0,0,0,.35.5c5.106,1.727,10.212,3.479,15.319,5.206h.05c.125.075.3.05.35.225a2.548,2.548,0,0,1,.075.876v14.668A1.572,1.572,0,0,1,211.616,417.013Z" transform="translate(-145.431 -300.117)" fill="#efeeee"/>
  <path id="Path_24" data-name="Path 24" d="M199.809,168.014c.25,0,.5.025.751.025h33.891c.225,0,.476-.1.676.1-.325.275-.7.175-1.051.175H200.961c-.926,0-.951.025-.951.951v13.116c0,.951,0,.951.976.951h16.846a3.373,3.373,0,0,1,.876.05c.35.125.476.325.15.626a2.765,2.765,0,0,0-1.2-.2h-16.8a1.5,1.5,0,0,1-1.076-.2c-.25,0-.5-.025-.751-.025H165.918c-.576,0-.751-.125-.776-.726-.225-3.379-.5-6.783-.751-10.162-.1-1.427-.2-2.879-.3-4.305-.025-.325.1-.426.375-.4h34.567A2.718,2.718,0,0,0,199.809,168.014Z" transform="translate(-133.774 -136.973)" fill="#efeeee"/>
  <path id="Path_25" data-name="Path 25" d="M255.621,376.77c-.075-.05-.175-.075-.25-.125.375-.075.25-.4.25-.626v-21.5c0-.526-.15-.651-.651-.651q-7.922.038-15.844,0c-.2,0-.476.125-.626-.15a.87.87,0,0,1,.6-.15c5.482,0,10.938-.025,16.42,0h16.42c.9,0,.926.075.876.976-.1,2.052-.25,4.1-.4,6.158-.175,2.6-.325,5.231-.551,7.835-.05.651-.075,1.327-.125,1.977-.075.826-.125.926-.926,1.2-1.6.551-3.2,1.076-4.806,1.627-3.154,1.076-6.333,2.153-9.487,3.229C256.247,376.745,255.946,376.945,255.621,376.77Z" transform="translate(-189.561 -276.094)" fill="#f6bd5a"/>
  <path id="Path_26" data-name="Path 26" d="M306.8,230.411c2.753,0,5.507-.025,8.26-.025H325.3c.275,0,.576-.075.551.375a.813.813,0,0,1,.15.676c-.2,2.278-.35,4.556-.526,6.833-.125,1.752-.275,3.529-.4,5.281-.05.626-.125,1.226-.15,1.852a.657.657,0,0,1-.7.7c-.125,0-.275.025-.4.025H307.676a1.468,1.468,0,0,1-.8-.125l-.075-.075Z" transform="translate(-240.765 -183.75)" fill="#f6bd5a"/>
  <path id="Path_27" data-name="Path 27" d="M253.3,307.919h-16.9c-.075,0-.15-.025-.225-.025-.25-4.856-.476-9.687-.726-14.543-.05-.926-.025-.926.876-.926H252.6c.225,0,.476-.025.7-.025v.05a.971.971,0,0,1,.2.776v13.942A.916.916,0,0,1,253.3,307.919Z" transform="translate(-187.267 -230.246)" fill="#efeeee"/>
  <path id="Path_28" data-name="Path 28" d="M306.725,215.107V199.638c.6,0,1.2-.025,1.8-.025h15.494c.476,0,.626-.125.651-.6.25-3.529.526-7.034.776-10.563.1-1.327.2-2.678.3-4,.15-.275.125-.451-.225-.451h-.476q-8.823,0-17.646.025c-.576,0-.7-.175-.7-.726.025-4.656.025-9.311,0-13.992,0-.551.15-.7.7-.7,11.539.025,23.078,0,34.617,0a18.153,18.153,0,0,1-.125,2.853c-.15,3.054-.375,6.082-.551,9.111-.25,3.98-.526,7.985-.776,11.965-.175,2.828-.325,5.657-.5,8.485-.25,4.13-.526,8.26-.776,12.365-.175,2.878-.325,5.782-.5,8.661-.225,3.479-.451,6.984-.651,10.463-.125,2.2-.25,4.43-.375,6.633-.1,1.577-.225,3.179-.3,4.756a.541.541,0,0,1-.451.551q-14.906,4.881-29.836,9.812a1.291,1.291,0,0,1-.275.05c-.2-.15-.15-.4-.15-.6V238.085c5.106-1.752,10.237-3.5,15.344-5.231a.779.779,0,0,0,.626-.851c.225-3.8.5-7.584.776-11.389.125-1.727.225-3.454.35-5.156.025-.275-.075-.35-.325-.35h-16.07A3.518,3.518,0,0,1,306.725,215.107Z" transform="translate(-240.69 -137.433)" fill="#fff"/>
</svg>
