<svg id="html" xmlns="http://www.w3.org/2000/svg" width="122.445" height="138.969" viewBox="0 0 122.445 138.969">
  <path id="Path_29" data-name="Path 29" d="M121.948,186.769a73.017,73.017,0,0,0-7.159-2.1Q96.918,179.673,79,174.73c-1.827-.5-3.629-1.051-5.482-1.5a1.358,1.358,0,0,1-1.176-1.452c-.851-9.712-1.752-19.424-2.628-29.11-.776-8.61-1.5-17.221-2.278-25.831-.676-7.584-1.377-15.143-2.052-22.728s-1.327-15.143-2-22.728c-.676-7.509-1.327-15.018-2.027-22.5-.075-.876.075-1.076.951-1.076q16.558.038,33.115.025h87.056c1.4,0,1.377,0,1.252,1.327-.676,7.609-1.327,15.219-2.027,22.828-.6,6.683-1.227,13.366-1.827,20.049-.576,6.408-1.126,12.791-1.7,19.2-.8,8.811-1.6,17.646-2.378,26.457-.676,7.684-1.327,15.369-2,23.053-.325,3.8-.726,7.609-1,11.414-.05.751-.5.851-1.026,1q-10.325,2.853-20.625,5.707-13.216,3.642-26.407,7.334c-.451.125-1,.05-1.3.576Z" transform="translate(-61.332 -47.8)" fill="#f6bd5a"/>
  <path id="Path_30" data-name="Path 30" d="M151.85,103.819c-.025-.15-.025-.325-.05-.476a2.269,2.269,0,0,1,1.151-.1h36.269a2.269,2.269,0,0,0,1.151-.1c0-4.656.025-9.286-.025-13.942,0-.826.225-1.1,1.076-1.1q23.992.038,48.008,0c1,0,1.226.25.976,1.252a32.026,32.026,0,0,0-.275,3.5c-.451,3.9-.826,7.835-1.076,11.764-.175,2.7-.526,5.357-.726,8.06a53.322,53.322,0,0,1-.726,7.184,26.068,26.068,0,0,0-.25,3.7c-.2,3.079-.526,6.157-.851,9.211-.2,1.877-.3,3.755-.476,5.632-.275,2.929-.676,5.857-.8,8.786-.125,2.728-.5,5.432-.7,8.16-.225,2.979-.551,5.932-.826,8.886-.15,1.727-.325,3.454-.451,5.206-.2,2.678-.375,5.382-.8,8.035-.2,1.3-.2,2.628-.275,3.93-.15,3-.5,6.007-.826,9.011a22.223,22.223,0,0,0-.225,3.4,1.471,1.471,0,0,1-1.352,1.7c-2.828.7-5.632,1.477-8.41,2.278-4.505,1.3-9.011,2.5-13.516,3.8-4.355,1.252-8.761,2.453-13.141,3.68a25.826,25.826,0,0,0-3.379.9c-.8.325-.951-.175-.951-.876.025-4.505,0-9.011.025-13.491a1.3,1.3,0,0,0-.851-1.427c.976-.426,2.1-.275,3.054-.826,9.211-2.5,18.372-5.131,27.584-7.609a1.72,1.72,0,0,0,1.452-1.777c.7-7.559,1.377-15.143,2.027-22.7.476-5.357,1.076-10.713,1.377-16.095.05-.851.175-1.7.3-2.553.2-.826.15-1.7.3-2.553.175-.926-.2-1.277-1.2-1.277-2.253-.025-4.505,0-6.758,0-8.61,0-17.2-.025-25.806,0-6.533.025-13.066,0-19.6.025a10.043,10.043,0,0,1-1.5-.05c-.4-.075-.851-.225-.926-.626-.2-1.151-.6-2.278-.125-3.454.2-.15.325-.025.426.125a2.668,2.668,0,0,1,.35,1.227c.05,1.927.2,1.9,2.228,1.9H188.47c1.527,0,1.577-.05,1.577-1.552V121.04c0-1.327-.075-1.4-1.377-1.427h-18c-1.227,0-1.252.025-1.176,1.277.1,1.452.225,2.929.375,4.38a2.532,2.532,0,0,1-.25,1.952c-.476-.075-.476-.476-.526-.826-.325-2.153-.35-4.33-.6-6.508-.075-.751.35-1.126,1.076-1.176.5-.025,1-.025,1.5-.025,18.072,0,36.169.075,54.241.025a2.382,2.382,0,0,0,1.552-.225,5.524,5.524,0,0,0,.526-2.678c.4-3.529.6-7.084.976-10.613.125-1.126-.05-1.3-1.3-1.3-8.31,0-16.645-.025-24.955,0q-24.63.038-49.285.05A3.073,3.073,0,0,1,151.85,103.819Z" transform="translate(-129.156 -78.013)" fill="#f5c97c"/>
  <path id="Path_31" data-name="Path 31" d="M152,150.075c.3-.375.726-.25,1.1-.25q37.4,0,74.791-.025c1.2,0,1.2,0,.851,1.777-.426-1.151-1.327-1.226-2.378-1.226q-16.783.038-33.541.025h-.651c-1.176.025-1.277.1-1.277,1.3-.025,3.83,0,7.634,0,11.464,0,1.477.075,1.552,1.6,1.552h33.416a1.976,1.976,0,0,1,1.527.35c-.35.375-.8.175-1.2.175q-28.009,0-56.018-.025c-1.377,0-1.352,0-1.2,1.327.25,2.3.275,4.631.7,6.908a4.987,4.987,0,0,1,.275,3.6c.075,1.076.15,2.128.225,3.2.025.451.25.651.676.626h.976q26.47,0,52.939-.025c1.4,0,1.427,0,1.3,1.4-.075,1-.225,1.977-.35,2.954a2.536,2.536,0,0,1-.325-2.153c.125-1.277.5-1.627-1.577-1.627H192.374c-1.352,0-1.427.075-1.427,1.352v11.564c0,1.3.1,1.377,1.427,1.4h14.793a10.862,10.862,0,0,1,1.277.025c1.151.075,1.377.325,1.377,1.427a38.625,38.625,0,0,1-.375,4.48c-.05.4.025.976-.626,1.076a1.691,1.691,0,0,1-.225-1.427c.15-1.026.175-2.053.3-3.079.15-1.352-.05-1.577-1.427-1.577-5.031,0-10.062.15-15.093-.025-11.664-.426-23.328-.075-34.993-.2-.451,0-.951.075-1.252-.4-.025-3.054-.5-6.082-.676-9.111-.075-1.352-.275-2.678-.325-4.03-.025-.375.15-.776-.125-1.126l-1.277-14.042C153.1,161.84,152.551,155.957,152,150.075Z" transform="translate(-129.305 -124.269)" fill="#ebebeb"/>
  <path id="Path_32" data-name="Path 32" d="M207.429,397.914a5.164,5.164,0,0,1-3.054.576c-3.654-1.227-7.409-2.128-11.089-3.154-6.258-1.777-12.515-3.479-18.773-5.181a1.036,1.036,0,0,1-.876-1.1c-.375-4.455-.8-8.886-1.2-13.341-.25-2.879-.526-5.757-.8-8.636-.125-1.352-.15-1.352,1.226-1.352,4.405,0,8.786.025,13.191-.025.7,0,.976.15,1.051.926.275,3.529.651,7.034.951,10.563.05.526.15.826.726.976,5.281,1.4,10.538,2.828,15.819,4.255a2.624,2.624,0,0,0,.626.025.614.614,0,0,1,.9.025,3.71,3.71,0,0,0-.576,2.4c.025,3.755,0,7.534,0,11.289,0,1.427,0,1.427,1.427,1.527A.535.535,0,0,1,207.429,397.914Z" transform="translate(-143.985 -286.128)" fill="#ebebeb"/>
  <path id="Path_33" data-name="Path 33" d="M203.543,359.08c-.275.025-.551.025-.851.05,0-7.609-.025-15.194.025-22.8,0-1-.3-1.227-1.277-1.227q-15.957.038-31.914,0c-.476,0-1.126.275-1.327-.5a2.382,2.382,0,0,0,1.552.225q25.156,0,50.336.025c1.327,0,1.327,0,1.226,1.352-.125,1.7-.275,3.4-.4,5.106.551,1.1.1,2.253-.025,3.354-.3,2.954-.551,5.882-.776,8.836a1.718,1.718,0,0,1-1.327,1.7c-4.656,1.327-9.386,2.478-14.042,3.83A1.948,1.948,0,0,1,203.543,359.08Z" transform="translate(-141.451 -262.813)" fill="#f6bd5a"/>
  <path id="Path_35" data-name="Path 35" d="M163.791,277.5a19.884,19.884,0,0,1,.451,5.156A23.807,23.807,0,0,1,163.791,277.5Z" transform="translate(-138.143 -220.005)" fill="#eab9a9"/>
  <path id="Path_36" data-name="Path 36" d="M306.842,314.4c4.355-1.2,8.736-2.378,13.091-3.6,1.026-.3,2.453-.15,3-1.1.476-.851.3-2.078.4-3.154.3-3.3.6-6.608.926-9.912a34.421,34.421,0,0,0,.7-6.208c.025-.325-.225-.4-.5-.426s-.576,0-.851,0c-5.507,0-11.013-.025-16.5.025-.8,0-1.126-.175-1.1-1.051.05-4.33.025-8.636,0-12.966,0-.726.175-1,.951-1q16.783.038,33.541,0c.826,0,1.026.35.851,1.026a11.568,11.568,0,0,0-.15,3.079c-.375,4.48-.751,8.961-1.151,13.416-.476,5.432-.976,10.863-1.452,16.295-.375,4.13-.751,8.235-1.076,12.365-.05.751-.526.826-1.051.951-5.457,1.5-10.913,3.029-16.395,4.531-3.755,1.026-7.484,2.078-11.239,3.1a5.428,5.428,0,0,1-.626.1,1.427,1.427,0,0,0-.325-.025c-1.877.325-1.877.325-1.877-1.577,0-4.13.025-8.26-.025-12.39C305.966,315.174,306.091,314.623,306.842,314.4Z" transform="translate(-244.75 -218.131)" fill="#fff"/>
  <path id="Path_37" data-name="Path 37" d="M342.891,165.638q-17.722,0-35.468-.025c-1.4,0-1.4,0-1.4-1.377,0-4.105.05-8.21-.025-12.315-.025-1.126.35-1.352,1.4-1.327q17.571.038,35.143.025c1.577,0,1.577,0,1.677,1.552-.375,4.355-.751,8.736-1.126,13.091A1.374,1.374,0,0,1,342.891,165.638Z" transform="translate(-244.755 -124.863)" fill="#fff"/>
  <path id="Path_38" data-name="Path 38" d="M221.448,223.989a24.7,24.7,0,0,1-.275-3.6,51.957,51.957,0,0,0-.526-7.109c-.075-.7.075-.876.726-.876,6.608,0,13.216.025,19.824,0,.6,0,.8.225.8.826-.025,4.531-.025,9.086,0,13.617,0,.6-.225.8-.8.8q-9.161-.038-18.322,0c-.776,0-1.026-.375-1.026-1.051A5.433,5.433,0,0,0,221.448,223.989Z" transform="translate(-180.757 -171.2)" fill="#f6bd5a"/>
</svg>
