<svg xmlns="http://www.w3.org/2000/svg" xmlns:xlink="http://www.w3.org/1999/xlink" viewBox="0 0 373.51 417.71"><defs><style>.cls-1{fill:none;}.cls-2{clip-path:url(#clip-path);}.cls-3{clip-path:url(#clip-path-2);}.cls-4{fill:#5d9ba6;}.cls-5{clip-path:url(#clip-path-3);}</style><clipPath id="clip-path"><path class="cls-1" d="M186.75,66.7v80a40,40,0,0,0,0,80V351a13.27,13.27,0,0,1-9.43-3.91l-75.46-75.46A120.05,120.05,0,0,1,186.75,66.7Z"/></clipPath><clipPath id="clip-path-2"><rect class="cls-1" x="26.68" y="53.36" width="320.15" height="320.15"/></clipPath><clipPath id="clip-path-3"><path class="cls-1" d="M186.75,66.7a120.05,120.05,0,0,1,84.89,204.94L196.19,347.1a13.29,13.29,0,0,1-9.44,3.91V226.77a40,40,0,0,0,0-80Z"/></clipPath></defs><title>icon-pin</title><g id="Layer_2" data-name="Layer 2"><g id="Layer_1-2" data-name="Layer 1"><g class="cls-2"><g class="cls-3"><rect class="cls-4" width="253.45" height="417.71"/></g></g><g class="cls-5"><g class="cls-3"><rect class="cls-4" x="120.06" width="253.45" height="417.71"/></g></g></g></g></svg>