<svg xmlns="http://www.w3.org/2000/svg" xmlns:xlink="http://www.w3.org/1999/xlink" viewBox="0 0 406.5 406.5"><defs><style>.cls-1{fill:#5d9ba6;}.cls-2,.cls-3{fill:none;}.cls-2{clip-rule:evenodd;}.cls-4{clip-path:url(#clip-path);}.cls-5{clip-path:url(#clip-path-2);}.cls-6{fill:#f6bd5a;}.cls-7{clip-path:url(#clip-path-3);}.cls-8{clip-path:url(#clip-path-4);}</style><clipPath id="clip-path"><circle class="cls-1" cx="203.25" cy="203.25" r="135.5"/></clipPath><clipPath id="clip-path-2"><rect class="cls-1" x="40.65" y="40.65" width="325.2" height="325.2"/></clipPath><clipPath id="clip-path-3"><path class="cls-2" d="M169.73,276.51a13.55,13.55,0,0,1-19.66-14.29l6.4-37.32-27.11-26.43a13.55,13.55,0,0,1,7.51-23.11l37.47-5.45L191.1,136a13.55,13.55,0,0,1,24.3,0l16.76,33.95,37.47,5.45a13.55,13.55,0,0,1,7.51,23.11L250,224.9l6.4,37.32a13.55,13.55,0,0,1-19.66,14.29l-33.52-17.62Z"/></clipPath><clipPath id="clip-path-4"><rect class="cls-3" x="40.65" y="47.1" width="325.2" height="325.2"/></clipPath></defs><title>icon-rank</title><g id="Layer_2" data-name="Layer 2"><g id="Layer_1-2" data-name="Layer 1"><circle class="cls-1" cx="203.25" cy="203.25" r="135.5"/><g class="cls-4"><rect class="cls-1" x="40.65" y="40.65" width="325.2" height="325.2"/><g class="cls-5"><rect class="cls-6" width="406.5" height="406.5"/></g></g><g class="cls-7"><g class="cls-8"><rect class="cls-1" x="57.5" y="60.65" width="291.5" height="285.19"/></g></g></g></g></svg>