<svg xmlns="http://www.w3.org/2000/svg" xmlns:xlink="http://www.w3.org/1999/xlink" viewBox="0 0 635.25 635.25"><defs><style>.cls-1,.cls-2{fill:none;}.cls-1{clip-rule:evenodd;}.cls-3{clip-path:url(#clip-path);}.cls-4{clip-path:url(#clip-path-2);}.cls-5{fill:#5d9ba6;}</style><clipPath id="clip-path"><path class="cls-1" d="M275.27,402.32a127.05,127.05,0,1,0-127-127A127,127,0,0,0,275.27,402.32ZM409.1,379.15l23.22,23.22a31.7,31.7,0,0,1,24.23,9.26l63.52,63.52a31.76,31.76,0,0,1-44.92,44.92l-63.52-63.52a31.7,31.7,0,0,1-9.26-24.23L379.15,409.1a169.36,169.36,0,1,1,30-30Z"/></clipPath><clipPath id="clip-path-2"><rect class="cls-2" x="63.52" y="63.52" width="508.2" height="508.2"/></clipPath></defs><title>icon-search</title><g id="Layer_2" data-name="Layer 2"><g id="Layer_1-2" data-name="Layer 1"><g class="cls-3"><g class="cls-4"><rect class="cls-5" width="635.25" height="635.25"/></g></g></g></g></svg>