<svg id="js" xmlns="http://www.w3.org/2000/svg" width="131.66" height="131.66" viewBox="0 0 131.66 131.66">
  <path id="Path_39" data-name="Path 39" d="M43,194.06V62.4H174.66V194.06Zm117.593-62.026c-2.1-3.7-4.781-6.708-8.736-8.285a22.649,22.649,0,0,0-16.8-.175,15.11,15.11,0,0,0-8.535,7.659,16.871,16.871,0,0,0-1.552,9.186,15.986,15.986,0,0,0,4.205,9.937,24.61,24.61,0,0,0,7.609,5.382c3.079,1.452,6.208,2.728,9.286,4.18a20.344,20.344,0,0,1,3.529,2.128,5.332,5.332,0,0,1,1.952,6.032,5.543,5.543,0,0,1-4.1,3.93c-5.106,1.477-9.712.6-13.491-3.3-1-1.051-1.827-2.253-2.778-3.479-3.279,1.9-6.633,3.83-9.987,5.782a21.882,21.882,0,0,0,7.084,8.21,24.779,24.779,0,0,0,11.814,4.23,29,29,0,0,0,12.415-1.151c4.43-1.477,7.96-4.055,10.062-8.36a17.642,17.642,0,0,0,1.6-8.686,16.084,16.084,0,0,0-6.132-12.49,42.731,42.731,0,0,0-9.687-5.532c-2.253-1-4.531-1.927-6.708-3.029a13.127,13.127,0,0,1-3-2.078c-2.353-2.178-2.3-7.559,2.3-8.886a8.388,8.388,0,0,1,4.38-.025,7.894,7.894,0,0,1,4.681,3.5c.325.476.626.976.976,1.5C154.185,136.165,157.339,134.112,160.593,132.035Zm-58.446-9.161v41.476a23.068,23.068,0,0,1-.225,3.229c-.35,2.2-1.3,4.055-3.6,4.631-3.7.951-6.483.2-8.661-2.753-.576-.8-1.076-1.677-1.627-2.528-.125-.2-.25-.426-.426-.7-3.379,2.027-6.708,4.055-10.037,6.082a18.287,18.287,0,0,0,9.286,9.487,23.342,23.342,0,0,0,17.2.551,14.433,14.433,0,0,0,9.136-8.986,23.977,23.977,0,0,0,1.377-8.711V123.6c0-.25-.025-.476-.025-.751C110.382,122.874,106.327,122.874,102.147,122.874Z" transform="translate(-43 -62.4)" fill="#f6bd5a"/>
  <path id="Path_40" data-name="Path 40" d="M394.8,310.712c-3.229,2.078-6.408,4.1-9.612,6.183-.35-.526-.651-1.026-.976-1.5a7.845,7.845,0,0,0-4.681-3.5,8.388,8.388,0,0,0-4.38.025,5.337,5.337,0,0,0-2.3,8.886,12.889,12.889,0,0,0,3,2.078c2.2,1.1,4.48,2.027,6.708,3.029a41.3,41.3,0,0,1,9.687,5.532,16.122,16.122,0,0,1,6.132,12.49,17.539,17.539,0,0,1-1.6,8.686,16.339,16.339,0,0,1-10.062,8.36,28.922,28.922,0,0,1-12.415,1.151,24.779,24.779,0,0,1-11.814-4.23,21.664,21.664,0,0,1-7.084-8.21c3.354-1.952,6.708-3.88,9.987-5.782.951,1.2,1.777,2.428,2.778,3.479,3.78,3.93,8.385,4.781,13.491,3.3a5.5,5.5,0,0,0,4.1-3.93,5.406,5.406,0,0,0-1.952-6.032,20.027,20.027,0,0,0-3.529-2.128c-3.079-1.452-6.208-2.728-9.286-4.18a24.32,24.32,0,0,1-7.609-5.382,15.985,15.985,0,0,1-4.205-9.937,17.1,17.1,0,0,1,1.552-9.186,15.188,15.188,0,0,1,8.535-7.659,22.772,22.772,0,0,1,16.8.175C390.017,304,392.7,307.007,394.8,310.712Z" transform="translate(-277.205 -241.077)" fill="#fff"/>
  <path id="Path_41" data-name="Path 41" d="M205.6,304H217.97c.025.25.025.5.025.751V345.8a23.977,23.977,0,0,1-1.377,8.711,14.377,14.377,0,0,1-9.136,8.986,23.458,23.458,0,0,1-17.2-.551A18.2,18.2,0,0,1,181,353.46c3.329-2.027,6.683-4.03,10.037-6.082.175.275.275.476.426.7.526.851,1.051,1.7,1.627,2.528,2.153,2.979,4.956,3.7,8.661,2.753,2.328-.6,3.279-2.453,3.6-4.631a20.011,20.011,0,0,0,.225-3.229c.025-13.516,0-27.033,0-40.549C205.6,304.626,205.6,304.35,205.6,304Z" transform="translate(-146.458 -243.526)" fill="#fff"/>
</svg>
