<svg id="laravel" xmlns="http://www.w3.org/2000/svg" width="128.031" height="127.997" viewBox="0 0 128.031 127.997">
  <path id="Path_42" data-name="Path 42" d="M182.809,92.427v28.284c-2.4-2.929-4.781-5.882-7.184-8.811-.9-1.1-1.8-2.2-2.778-3.2a3.5,3.5,0,0,0-3.4-1.1c-1.627.325-3.279.526-4.931.8-5.281.876-10.588,1.727-15.844,2.7-2.528.451-2.853,1.427-1.4,3.479l12.991,18.4c.25.375.5.726.826,1.226-.526.175-.9.325-1.3.426-13.366,3.2-26.758,6.383-40.124,9.637a2.086,2.086,0,0,1-2.753-1.2Q103.762,120.912,90.5,98.86q-3.867-6.42-7.759-12.841a3.583,3.583,0,0,0-3.554-1.852c-1.277.075-2.578.15-3.855.25l-15.193,1.2c-1.277.1-2.553.175-3.8.25-.025-.175-.075-.25-.05-.325a3.65,3.65,0,0,1,.175-.476c3.229-7.284,8.585-12.19,16.345-14.242,1.427-.375,2.929-.551,4.38-.826h83.1a5.226,5.226,0,0,0,1.076.275,23.839,23.839,0,0,1,20.675,18.1C182.358,89.649,182.558,91.051,182.809,92.427Z" transform="translate(-54.778 -70)" fill="#f6bd5a"/>
  <path id="Path_43" data-name="Path 43" d="M178.331,278.272v9.261c-.125.726-.25,1.452-.35,2.2a24.033,24.033,0,0,1-23.629,20.25q-40.1.038-80.2-.025a23.993,23.993,0,0,1-23.854-24V219.4c.275.526.426.776.551,1.026q10.888,23.5,21.751,47.057c1.752,3.83,4.08,4.981,8.135,3.93q14.117-3.6,28.259-7.309a1.621,1.621,0,0,1,2.228.951q7.059,12.728,14.292,25.356a19.565,19.565,0,0,0,2.278,3.129,3.6,3.6,0,0,0,3.855,1.151c1.2-.325,2.428-.6,3.6-1Q156.767,285.956,178.331,278.272Z" transform="translate(-50.3 -182.004)" fill="#f6bd5a"/>
  <path id="Path_44" data-name="Path 44" d="M472.211,254.162c-5.156,1.277-10.338,2.5-15.494,3.8a1.58,1.58,0,0,1-1.977-.676c-3.8-5.306-7.684-10.588-11.539-15.869-.275-.35-.5-.751-.9-1.352,2.128-.4,4.08-.751,6.007-1.1,3.429-.626,6.883-1.2,10.288-1.9a2.184,2.184,0,0,1,2.478.9c3.379,4.355,6.783,8.661,10.187,12.991a11.37,11.37,0,0,0,.951.951Z" transform="translate(-344.181 -195.19)" fill="#f6bd5a"/>
  <path id="Path_45" data-name="Path 45" d="M522.816,348.375c-4.305-5.707-8.585-11.439-13.016-17.321,4.48-1.176,8.736-2.328,13.016-3.454Z" transform="translate(-394.785 -263.122)" fill="#f6bd5a"/>
  <path id="Path_46" data-name="Path 46" d="M72.9,143.413c.951-.35,1.527.3,2.1,1.277q15.769,27.333,31.613,54.617c.951,1.652.951,1.7-.9,2.153-8.36,2-16.745,3.98-25.106,6.007-.9.225-1.252-.05-1.6-.8Q65.038,177.829,51.1,149.019c-.225-.476-.6-1.026-.526-1.5.275-2.228-.25-2.153,2.178-2.353,5.281-.4,10.538-.926,15.794-1.4C69.894,143.638,71.271,143.563,72.9,143.413Z" transform="translate(-50.496 -124.965)" fill="#f6bd5a"/>
  <path id="Path_47" data-name="Path 47" d="M315.4,356.717c4.33-1.126,8.485-2.228,12.615-3.3,10.012-2.6,20.024-5.231,30.062-7.784a1.687,1.687,0,0,1,1.427.451c4.831,6.533,9.587,13.116,14.393,19.7.776,1.076.1,1.327-.751,1.6Q357,372.824,340.881,378.318c-2.828.951-5.657,1.927-8.485,2.9-2,.676-2.328.6-3.429-1.252q-5.144-8.711-10.212-17.471C317.678,360.646,316.6,358.769,315.4,356.717Z" transform="translate(-249.044 -276.619)" fill="#f6bd5a"/>
</svg>
