<svg id="Layer_1" data-name="Layer 1" xmlns="http://www.w3.org/2000/svg" viewBox="0 0 511.78 903.58"><defs><style>.cls-1,.cls-2{fill:#fff;}.cls-2{isolation:isolate;font-size:113.48px;font-family:MetroBlackLT-Two, MetroBlack LT Two;}</style></defs><title>logo_urban_food_w</title><g id="Layer_2" data-name="Layer 2"><g id="Layer_1-2" data-name="Layer 1-2"><path class="cls-1" d="M255.88,0C114.65,0,0,114.67,0,255.81c0,59,21.45,111.71,53,156L204.52,624.05c51.78,61,51.78,61,102.73,0L458.78,411.77c31.54-44.28,53-97.14,53-156C511.75,114.67,397.25,0,255.88,0Z"/><path class="cls-1" d="M394.52,231A138.65,138.65,0,1,1,255.8,92.42h.08A138.5,138.5,0,0,1,394.52,230.78Z"/><path d="M256.31,121.08a109.62,109.62,0,0,0-43.74,210.15L214,303.55c0-22-16.27-15-16.27-30.36,0-8.64.27-26.62.27-40.13,0-36,15.28-70.8,19-78.57s12.66-16.22,12.76-8.07c0,11.82.5,149.29.5,149.29h0L232,337.54a104.36,104.36,0,0,0,37.89,1.89l3.63-70.27a35.22,35.22,0,0,1-21.37-14.81c-5.93-8.89,4.56-87.46,4.56-87.46h6.83v73.74h6.77V166.89h7.41v73.74h6.75V166.89h7.69v73.74h6.77V166.89h5.23s10.49,78.57,4.56,87.46a35.3,35.3,0,0,1-21.14,14.77l-.3.12,3.43,65.55a109.61,109.61,0,0,0-34.35-213.71Z"/><path d="M256.31,100.72c-71.68,0-130,58.32-130,130s58.33,130,130,130,130-58.33,130-130S328,100.72,256.31,100.72Zm0,250.31A120.31,120.31,0,1,1,376.62,230.72,120.3,120.3,0,0,1,256.31,351Z"/><text class="cls-2" transform="translate(41.57 775.63)">URBAN</text><text class="cls-2" transform="translate(79.36 876.8)">FOOD</text></g></g></svg>